Coordinates
version=1
nRows=8
nColumns=63
inDegrees=yes

Units are S.I. units (second, meters, Newtons, ...)
If the header above contains a line with 'inDegrees', this indicates whether rotational values are in degrees (yes) or radians (no).

endheader
time	pelvis_tilt	pelvis_list	pelvis_rotation	pelvis_tx	pelvis_ty	pelvis_tz	hip_flexion_r	hip_adduction_r	hip_rotation_r	knee_angle_r	knee_angle_r_beta	ankle_angle_r	subtalar_angle_r	mtp_angle_r	hip_flexion_l	hip_adduction_l	hip_rotation_l	knee_angle_l	knee_angle_l_beta	ankle_angle_l	subtalar_angle_l	mtp_angle_l	L5_S1_Flex_Ext	L5_S1_Lat_Bending	L5_S1_axial_rotation	L4_L5_Flex_Ext	L4_L5_Lat_Bending	L4_L5_axial_rotation	L3_L4_Flex_Ext	L3_L4_Lat_Bending	L3_L4_axial_rotation	L2_L3_Flex_Ext	L2_L3_Lat_Bending	L2_L3_axial_rotation	L1_L2_Flex_Ext	L1_L2_Lat_Bending	L1_L2_axial_rotation	L1_T12_Flex_Ext	L1_T12_Lat_Bending	L1_T12_axial_rotation	Abs_r3	Abs_r2	Abs_r1	Abs_t1	Abs_t2	neck_flexion	neck_bending	neck_rotation	arm_flex_r	arm_add_r	arm_rot_r	elbow_flex_r	pro_sup_r	wrist_flex_r	wrist_dev_r	arm_flex_l	arm_add_l	arm_rot_l	elbow_flex_l	pro_sup_l	wrist_flex_l	wrist_dev_l
      3.61363636	     -2.35802608	     -1.53204658	    114.18035394	      0.05477301	      0.49380097	      0.81371985	      8.37613552	      0.45853262	    -17.94831554	     21.08633852	      0.36802603	     39.11751213	     -1.24239005	      0.00000000	     11.15467976	     -1.25612369	     -0.39881485	     20.99386515	      0.36641207	     38.33791831	     17.23636837	      0.00000000	     -0.34247844	     -0.53077206	     -1.65150702	     -0.63601672	     -0.70592684	     -1.75472621	     -0.56265783	     -1.29051919	     -1.75472621	     -0.39141861	     -1.29051919	     -1.44506864	     -0.31802548	     -1.08235039	     -1.34184945	     -0.19569218	     -0.82216592	     -1.23863027	     -2.44628927	     -6.00419972	     -9.18518659	      0.00000000	      0.00000000	      6.16820859	     -9.78001720	      0.43619678	     46.62926525	    -19.17124624	     28.42637337	     76.23449690	     69.00239702	      5.44986045	     25.96875266	      1.99259205	    -11.22604926	     18.55839080	     58.62208179	     88.51091969	    -20.42215640	     -5.52307975
      3.63636364	     -2.31946947	     -1.40485253	    113.78847065	      0.05494137	      0.49260095	      0.81193375	      8.32014977	      0.66885479	    -17.24790382	     21.27517718	      0.37132189	     39.39857950	     -1.71106730	      0.00000000	     11.30386544	     -1.42893931	     -0.59824844	     21.68798721	      0.37852678	     39.09908808	     17.37736191	      0.00000000	     -0.33198704	     -0.50915790	     -1.52740303	     -0.61653314	     -0.67718001	     -1.62286572	     -0.54542151	     -1.23796652	     -1.62286572	     -0.37942799	     -1.23796652	     -1.33647765	     -0.30828317	     -1.03827479	     -1.24101496	     -0.18969740	     -0.78868559	     -1.14555227	     -2.37135024	     -5.75969600	     -8.49495743	      0.00000000	      0.00000000	      6.66716678	    -10.23890680	      0.82911173	     47.32994721	    -20.39140164	     35.60552137	     74.12746792	     63.26570294	     -2.93645482	     28.08672242	      1.40436678	    -10.36952304	     17.62009282	     58.92248969	     88.38330858	    -19.17802886	     -6.07261589
      3.65909091	     -2.36534209	     -1.36193125	    113.25146997	      0.05587734	      0.49178607	      0.80994883	      8.24794329	      0.77781439	    -16.72592892	     21.34115290	      0.37247338	     39.65953096	     -1.74461610	      0.00000000	     11.39622712	     -1.51418820	     -0.81270744	     22.20487460	      0.38754817	     39.63347818	     17.36051854	      0.00000000	     -0.31584960	     -0.51392283	     -1.27480594	     -0.58656428	     -0.68351737	     -1.35448131	     -0.51890930	     -1.24955198	     -1.35448131	     -0.36098450	     -1.24955198	     -1.11545520	     -0.29329793	     -1.04799144	     -1.03577983	     -0.18047646	     -0.79606647	     -0.95610446	     -2.25608208	     -5.81359788	     -7.09008820	      0.00000000	      0.00000000	      6.72582001	    -10.69725087	      0.16455773	     47.33019208	    -21.23490735	     39.74293263	     72.03479127	     64.12716627	     -5.07481165	     28.97621463	      1.23198788	     -9.92027228	     17.98262747	     59.17790828	     88.18744128	    -18.30441529	     -5.57111539
      3.68181818	     -2.40737154	     -1.34676087	    112.88820930	      0.05668237	      0.49131576	      0.80790461	      8.15033083	      0.88447112	    -16.24710454	     21.32277077	      0.37215256	     39.96469884	     -1.74816465	      0.00000000	     11.42195525	     -1.57200899	     -0.87163530	     22.52731067	      0.39317574	     40.01599150	     17.41755682	      0.00000000	     -0.29827308	     -0.52489732	     -1.08070527	     -0.55392295	     -0.69811344	     -1.14824935	     -0.49003285	     -1.27623536	     -1.14824935	     -0.34089631	     -1.27623536	     -0.94561711	     -0.27697639	     -1.07037062	     -0.87807303	     -0.17043324	     -0.81306596	     -0.81052895	     -2.13053482	     -5.93774352	     -6.01055850	      0.00000000	      0.00000000	      6.71151589	    -10.80032752	     -0.54108726	     47.06019520	    -21.74856857	     42.18077353	     70.58428023	     65.87517501	     -5.85945147	     29.52448228	      1.02402070	     -9.55068227	     18.33864095	     59.31277741	     87.88080571	    -17.45748395	     -5.07879995
      3.70454545	     -2.38952368	     -1.34295816	    112.64251645	      0.05746084	      0.49127595	      0.80659764	      7.99495236	      1.03860997	    -15.99861569	     21.01383983	      0.36676069	     40.07292597	     -1.63185875	      0.00000000	     11.51547481	     -1.65935346	     -0.94791156	     22.81890902	      0.39826509	     40.19828627	     17.39262554	      0.00000000	     -0.28969003	     -0.53109716	     -0.99468539	     -0.53798335	     -0.70635923	     -1.05685322	     -0.47593175	     -1.29130964	     -1.05685322	     -0.33108673	     -1.29130964	     -0.87034971	     -0.26900616	     -1.08301334	     -0.80818188	     -0.16552888	     -0.82266951	     -0.74601404	     -2.06922691	     -6.00787733	     -5.53214171	      0.00000000	      0.00000000	      6.43658591	    -10.36669912	     -0.77665834	     46.66738252	    -21.64475358	     42.51182564	     69.56090049	     66.50342199	     -5.70911180	     29.54243138	      0.70037464	     -9.37333956	     18.50356037	     59.63567028	     87.64327378	    -17.07462094	     -4.87135870
      3.72727273	     -2.32754425	     -1.25087894	    112.24080871	      0.05854344	      0.49174047	      0.80506337	      7.72301889	      1.29146904	    -15.67100112	     20.66324321	      0.36064163	     39.98748933	     -1.34745697	      0.00000000	     11.42311997	     -1.87319913	     -1.13216256	     22.93959034	      0.40037138	     40.40123016	     17.32550166	      0.00000000	     -0.28672139	     -0.53055885	     -0.97732536	     -0.53247029	     -0.70564326	     -1.03840819	     -0.47105457	     -1.29000078	     -1.03840819	     -0.32769388	     -1.29000078	     -0.85515969	     -0.26624948	     -1.08191560	     -0.79407685	     -0.16383260	     -0.82183565	     -0.73299402	     -2.04802222	     -6.00178777	     -5.43559045	      0.00000000	      0.00000000	      6.19313517	     -9.76017527	     -0.41790940	     46.34374788	    -21.16872376	     41.32334276	     69.20494028	     65.90862192	     -4.80131325	     29.19551395	      0.29657300	     -9.42212496	     18.39868981	     59.96318227	     87.28264407	    -16.88882017	     -4.42809401
      3.75000000	     -2.53073502	     -1.26477199	    111.75919573	      0.05973682	      0.49263148	      0.80425575	      7.54111442	      1.22915292	    -15.22809154	     20.44897493	      0.35690194	     39.63913318	     -1.45221285	      0.00000000	     11.17479915	     -1.81700111	     -1.79282574	     22.69438679	      0.39609177	     40.16367590	     17.45826921	      0.00000000	     -0.28583177	     -0.56393845	     -0.98859154	     -0.53081818	     -0.75003813	     -1.05037851	     -0.46959301	     -1.37115994	     -1.05037851	     -0.32667713	     -1.37115994	     -0.86501759	     -0.26542338	     -1.14998328	     -0.80323062	     -0.16332427	     -0.87354065	     -0.74144365	     -2.04166774	     -6.37938449	     -5.49824954	      0.00000000	      0.00000000	      5.91382557	     -8.90452270	      0.03317719	     46.30770349	    -20.44614661	     38.40031681	     68.63621653	     57.67872292	      0.57399460	     29.54770273	      0.05291076	     -9.77266241	     18.26788165	     60.42569779	     87.27339523	    -17.00828963	     -2.75968596
      3.77272727	     -2.67478423	     -1.17604658	    111.26997860	      0.06129256	      0.49383189	      0.80372537	      7.23987577	      1.27310099	    -14.88089423	     20.16862251	      0.35200887	     39.08029424	     -1.45752656	      0.00000000	     10.82667813	     -1.86328011	     -2.35033684	     22.39347845	      0.39083993	     39.85041144	     17.37761691	      0.00000000	     -0.29408758	     -0.58705476	     -1.03837297	     -0.54615004	     -0.78078283	     -1.10327128	     -0.48315648	     -1.42736494	     -1.10327128	     -0.33611269	     -1.42736494	     -0.90857635	     -0.27308972	     -1.19712206	     -0.84367804	     -0.16804164	     -0.90934782	     -0.77877973	     -2.10063815	     -6.64088083	     -5.77511894	      0.00000000	      0.00000000	      5.58320988	     -7.99021516	      0.60073963	     46.77392852	    -19.93609169	     36.13879971	     69.19332829	     49.37359607	      1.78486278	     30.01243214	     -0.12851782	    -10.36308825	     18.41403580	     60.69409683	     87.40240207	    -18.13442445	     -1.75486989
